<svg xmlns="http://www.w3.org/2000/svg" version="1.1" xmlns:xlink="http://www.w3.org/1999/xlink" width="512" height="512" x="0" y="0" viewBox="0 0 24 24" style="enable-background:new 0 0 512 512" xml:space="preserve" class=""><g><g data-name="Layer 2"><path d="M19 22.78H5A3.76 3.76 0 0 1 1.25 19V7A3.75 3.75 0 0 1 5 3.27h14A3.75 3.75 0 0 1 22.75 7v12A3.76 3.76 0 0 1 19 22.78ZM5 4.77A2.25 2.25 0 0 0 2.75 7v12A2.25 2.25 0 0 0 5 21.28h14A2.25 2.25 0 0 0 21.25 19V7A2.25 2.25 0 0 0 19 4.77Z" fill="#000000" opacity="1" data-original="#000000" class=""></path><path d="M19 22.78H5A3.76 3.76 0 0 1 1.25 19V9.48A.75.75 0 0 1 2 8.73h20a.75.75 0 0 1 .75.75V19A3.76 3.76 0 0 1 19 22.78ZM2.75 10.23V19A2.25 2.25 0 0 0 5 21.28h14A2.25 2.25 0 0 0 21.25 19v-8.8ZM6.5 6.73A.76.76 0 0 1 5.75 6V2a.75.75 0 0 1 1.5 0v4a.76.76 0 0 1-.75.73ZM12 6.73a.76.76 0 0 1-.75-.73V2a.75.75 0 0 1 1.5 0v4a.76.76 0 0 1-.75.73ZM17.5 6.73a.76.76 0 0 1-.75-.73V2a.75.75 0 1 1 1.5 0v4a.76.76 0 0 1-.75.73Z" fill="#000000" opacity="1" data-original="#000000" class=""></path><circle cx="7" cy="13.48" r="1.25" fill="#000000" opacity="1" data-original="#000000" class=""></circle><circle cx="12" cy="13.48" r="1.25" fill="#000000" opacity="1" data-original="#000000" class=""></circle><circle cx="17" cy="13.48" r="1.25" fill="#000000" opacity="1" data-original="#000000" class=""></circle><circle cx="7" cy="17.48" r="1.25" fill="#000000" opacity="1" data-original="#000000" class=""></circle><circle cx="12" cy="17.48" r="1.25" fill="#000000" opacity="1" data-original="#000000" class=""></circle><circle cx="17" cy="17.48" r="1.25" fill="#000000" opacity="1" data-original="#000000" class=""></circle></g></g></svg>