<svg xmlns="http://www.w3.org/2000/svg" version="1.1" xmlns:xlink="http://www.w3.org/1999/xlink" width="512" height="512" x="0" y="0" viewBox="0 0 511.992 511.992" style="enable-background:new 0 0 512 512" xml:space="preserve" class=""><g><path d="M508.033 444.456 284.032 37.002c-5.714-10.342-16.179-16.527-28.056-16.527-11.857.02-22.322 6.205-28.016 16.547L3.959 444.476c-5.447 9.912-5.263 21.626.492 31.374 5.796 9.81 16.097 15.667 27.544 15.667h448.003c11.468 0 21.749-5.878 27.544-15.708 5.755-9.707 5.939-21.462.491-31.353zm-18.124 20.95c-.983 1.679-3.973 5.611-9.932 5.611H31.995c-5.959 0-8.908-3.911-9.912-5.611-.983-1.638-2.949-6.021-.184-11.059L245.9 46.893c4.075-7.393 16.117-7.393 20.192 0l223.981 407.454c2.785 5.038.819 9.4-.164 11.059z" fill="#fff" opacity="1" data-original="#000000" class=""></path><path d="M255.996 378.881c-11.305 0-20.479 9.154-20.479 20.479s9.175 20.479 20.479 20.479 20.479-9.154 20.479-20.479-9.174-20.479-20.479-20.479z" fill="#fff" opacity="1" data-original="#000000" class=""></path><path d="M255.996 368.642c-16.936 0-30.719 13.782-30.719 30.719s13.782 30.719 30.719 30.719c16.957 0 30.719-13.782 30.719-30.719s-13.783-30.719-30.719-30.719zm0 40.958c-5.652 0-10.24-4.608-10.24-10.24s4.587-10.24 10.24-10.24c5.652 0 10.24 4.608 10.24 10.24s-4.588 10.24-10.24 10.24zM276.209 211.444c-1.638-9.789-10.117-16.895-20.172-16.895-1.126 0-2.273.102-3.42.287-5.447.901-10.199 3.85-13.373 8.274-3.092 4.362-4.321 9.646-3.44 14.909l20.213 119.885 20.192-119.865a20.96 20.96 0 0 0 0-6.595z" fill="#fff" opacity="1" data-original="#000000" class=""></path><path d="M286.305 209.744c-2.519-14.868-15.523-25.415-30.268-25.415-1.679 0-3.379.143-5.099.43-16.732 2.744-28.036 18.411-25.23 34.978L245.9 339.684a10.179 10.179 0 0 0 8.417 8.335 9.556 9.556 0 0 0 1.7.143c4.915 0 9.257-3.522 10.076-8.478l20.213-119.947c.511-3.194.552-6.635-.001-9.993zm-20.192 6.574-10.117 60.045-10.117-60.045c-.573-3.42.819-5.98 1.7-7.229 1.577-2.212 3.952-3.686 6.697-4.137a10.426 10.426 0 0 1 1.761-.143c4.935 0 9.277 3.584 10.076 8.335a10.3 10.3 0 0 1 0 3.174z" fill="#fff" opacity="1" data-original="#000000" class=""></path></g></svg>